<svg xmlns="http://www.w3.org/2000/svg" version="1.1"
    xmlns:xlink="http://www.w3.org/1999/xlink" width="512" height="512" x="0" y="0" viewBox="0 0 32 32" style="enable-background:new 0 0 512 512" xml:space="preserve" class="">
    <g>
        <path d="M30 16a14 14 0 0 1-28 0A14.63 14.63 0 0 1 6.31 5.59 1 1 0 1 1 7.69 7 12.61 12.61 0 0 0 4 16a12 12 0 0 0 24 0 12.61 12.61 0 0 0-3.69-9 1 1 0 0 1 1.38-1.44A14.63 14.63 0 0 1 30 16zm-14 2a1 1 0 0 0 1-1V2a1 1 0 0 0-2 0v15a1 1 0 0 0 1 1z" data-name="Layer 12" fill="current" opacity="1" data-original="#000000"></path>
    </g>
</svg>