<svg xmlns="http://www.w3.org/2000/svg" version="1.1"
    xmlns:xlink="http://www.w3.org/1999/xlink" width="512" height="512" x="0" y="0" viewBox="0 0 32 32" style="enable-background:new 0 0 512 512" xml:space="preserve" class="">
    <g>
        <g data-name="Layer 2">
            <path d="M2.87 28.56A1.88 1.88 0 0 1 1 26.69V11.31a3.88 3.88 0 0 1 3.87-3.87h18.25A3.88 3.88 0 0 1 27 11.31v10.25a3.88 3.88 0 0 1-3.87 3.88H7.91a.82.82 0 0 0-.48.16L4 28.19a1.89 1.89 0 0 1-1.13.37zm2-19.12A1.88 1.88 0 0 0 3 11.31v15.13L6.23 24a2.84 2.84 0 0 1 1.68-.56h15.21A1.88 1.88 0 0 0 25 21.56V11.31a1.88 1.88 0 0 0-1.87-1.87z" fill="current" opacity="1" data-original="#000000" class=""></path>
            <circle cx="17.94" cy="16.53" r="1" fill="current" opacity="1" data-original="#000000" class=""></circle>
            <circle cx="14.06" cy="16.53" r="1" fill="current" opacity="1" data-original="#000000" class=""></circle>
            <circle cx="10.06" cy="16.53" r="1" fill="current" opacity="1" data-original="#000000" class=""></circle>
            <path d="M30 18.44a1 1 0 0 1-1-1V7.31a1.88 1.88 0 0 0-1.87-1.87H7a1 1 0 0 1-1-1 1 1 0 0 1 1-1h20.13A3.88 3.88 0 0 1 31 7.31v10.13a1 1 0 0 1-1 1z" fill="current" opacity="1" data-original="#000000" class=""></path>
        </g>
    </g>
</svg>