<svg xmlns="http://www.w3.org/2000/svg" version="1.1"
    xmlns:xlink="http://www.w3.org/1999/xlink" width="512" height="512" x="0" y="0" viewBox="0 0 24 24" style="enable-background:new 0 0 512 512" xml:space="preserve" class="">
    <g>
        <path d="M23.25 16a.75.75 0 0 1-.75-.75V2.75c0-.689-.561-1.25-1.25-1.25H2.75c-.689 0-1.25.561-1.25 1.25v12.5a.75.75 0 0 1-1.5 0V2.75A2.752 2.752 0 0 1 2.75 0h18.5A2.752 2.752 0 0 1 24 2.75v12.5a.75.75 0 0 1-.75.75z" fill="current" opacity="1" data-original="#000000" class=""></path>
        <path d="M8.25 16a.751.751 0 0 1-.656-.386L6.5 13.645v1.605a.75.75 0 0 1-1.5 0v-4.5a.75.75 0 0 1 1.406-.365l1.094 1.97V10.75a.75.75 0 0 1 1.5 0v4.5a.75.75 0 0 1-.75.75zM12.25 16h-.5c-.965 0-1.75-.785-1.75-1.75v-2.5c0-.965.785-1.75 1.75-1.75h.5c.965 0 1.75.785 1.75 1.75v2.5c0 .965-.785 1.75-1.75 1.75zm-.5-4.5a.25.25 0 0 0-.25.25v2.5c0 .138.112.25.25.25h.5a.25.25 0 0 0 .25-.25v-2.5a.25.25 0 0 0-.25-.25zM17 16a.75.75 0 0 1-.75-.75v-4.5a.75.75 0 0 1 1.5 0v4.5A.75.75 0 0 1 17 16z" fill="current" opacity="1" data-original="#000000" class=""></path>
        <path d="M18.25 11.5h-2.5a.75.75 0 0 1 0-1.5h2.5a.75.75 0 0 1 0 1.5zM22.25 24h-1.5a.75.75 0 0 1-.75-.75v-4.5a.75.75 0 0 1 .75-.75h1.5c.965 0 1.75.785 1.75 1.75v2.5c0 .965-.785 1.75-1.75 1.75zm-.75-1.5h.75a.25.25 0 0 0 .25-.25v-2.5a.25.25 0 0 0-.25-.25h-.75zM.75 24a.75.75 0 0 1-.75-.75v-3.5C0 18.785.785 18 1.75 18h1.5a.75.75 0 0 1 0 1.5h-1.5a.25.25 0 0 0-.25.25v3.5a.75.75 0 0 1-.75.75z" fill="current" opacity="1" data-original="#000000" class=""></path>
        <path d="M3.25 22H.75a.75.75 0 0 1 0-1.5h2.5a.75.75 0 0 1 0 1.5zM18.25 24a.751.751 0 0 1-.656-.386l-1.094-1.97v1.605a.75.75 0 0 1-1.5.001v-4.5a.75.75 0 0 1 1.406-.365l1.094 1.97V18.75a.75.75 0 0 1 1.5 0v4.5a.75.75 0 0 1-.75.75zM7.25 24h-.5C5.785 24 5 23.215 5 22.25v-2.5c0-.965.785-1.75 1.75-1.75h.5c.965 0 1.75.785 1.75 1.75v2.5C9 23.215 8.215 24 7.25 24zm-.5-4.5a.25.25 0 0 0-.25.25v2.5c0 .138.112.25.25.25h.5a.25.25 0 0 0 .25-.25v-2.5a.25.25 0 0 0-.25-.25zM12.25 24h-.5c-.965 0-1.75-.785-1.75-1.75v-3.5a.75.75 0 0 1 1.5 0v3.5c0 .138.112.25.25.25h.5a.25.25 0 0 0 .25-.25v-3.5a.75.75 0 0 1 1.5 0v3.5c0 .965-.785 1.75-1.75 1.75zM23.25 5H.75a.75.75 0 0 1 0-1.5h22.5a.75.75 0 0 1 0 1.5z" fill="current" opacity="1" data-original="#000000" class=""></path>
    </g>
</svg>