<svg version="1.1" id="Layer_1" xmlns="http://www.w3.org/2000/svg" xmlns:xlink="http://www.w3.org/1999/xlink" x="0px" y="0px"
	 width="100%" viewBox="0 0 3873 3873" enable-background="new 0 0 3873 3873" xml:space="preserve">
<path fill="#BABABA" opacity="1.000000" stroke="none" 
	d="
M794.588623,3875.382812 
	C530.017517,3876.000000 266.035065,3876.000000 2.026294,3876.000000 
	C2.026294,2584.770020 2.026294,1293.539917 2.026294,2.154911 
	C1293.144287,2.154911 2584.288574,2.154911 3875.716309,2.154911 
	C3875.716309,1293.333252 3875.716309,2584.666748 3875.716309,3876.000000 
	C3613.174561,3876.000000 3350.524414,3876.000000 3086.937256,3876.000000 
	C3082.536621,3873.259033 3081.711670,3869.499023 3081.663330,3865.323242 
	C3081.601562,3859.991699 3081.570312,3854.660156 3081.570312,3849.328613 
	C3081.567139,3589.395508 3081.772705,3329.462402 3081.396973,3069.529785 
	C3081.320557,3016.663330 3072.077148,2964.924072 3056.862549,2914.267578 
	C3033.655273,2837.000977 2995.817383,2767.495361 2944.968506,2705.126221 
	C2912.922852,2665.820312 2876.842285,2630.474854 2837.507080,2598.302979 
	C2781.765625,2552.711914 2720.961914,2515.155273 2656.475342,2483.695312 
	C2579.324707,2446.056641 2498.591553,2417.858398 2415.438965,2396.517822 
	C2343.774170,2378.125244 2271.221191,2364.645996 2197.752686,2355.981689 
	C2192.470947,2355.358643 2187.250488,2354.216553 2181.044922,2354.142334 
	C2176.773926,2353.933838 2173.407227,2353.213867 2169.087402,2353.083984 
	C2132.614502,2348.615479 2096.841309,2346.723389 2061.106934,2344.169189 
	C2040.517090,2342.697266 2019.963989,2343.030518 1998.462158,2342.242676 
	C1965.565430,2336.196289 1933.282837,2340.066162 1901.162231,2339.052002 
	C1894.803955,2338.851074 1888.812744,2341.540039 1881.568604,2342.115967 
	C1871.238037,2342.806152 1861.819092,2342.103271 1851.518066,2343.029297 
	C1842.285767,2341.711914 1834.016602,2341.594238 1824.930420,2344.082031 
	C1809.540283,2343.927979 1795.168457,2345.626465 1779.889648,2346.908691 
	C1773.948486,2346.808350 1768.875610,2346.477539 1763.056885,2348.004883 
	C1717.363525,2350.901367 1672.867188,2356.788330 1628.435303,2363.234375 
	C1578.002930,2370.550781 1528.074219,2380.517822 1478.646118,2392.827393 
	C1404.517456,2411.288330 1332.262817,2435.322754 1262.165283,2465.901123 
	C1208.895020,2489.138916 1158.123291,2516.891357 1109.643066,2548.750000 
	C1077.371826,2569.957031 1046.712769,2593.410645 1017.833008,2619.203369 
	C970.904602,2661.115967 929.112732,2707.404785 894.842407,2760.285645 
	C846.864197,2834.317871 816.114380,2914.813965 804.008728,3002.340332 
	C800.310608,3029.078125 798.375427,3055.878174 798.384094,3082.879883 
	C798.467041,3340.127930 798.454712,3597.375977 798.330200,3854.624023 
	C798.326965,3861.381592 800.439758,3868.727051 794.588623,3875.382812 
z"/>
<path fill="#FFFFFF" opacity="1.000000" stroke="none" 
	d="
M794.937317,3876.000000 
	C793.958252,3872.667480 793.880005,3869.335205 793.879944,3866.002686 
	C793.874451,3605.681152 793.980286,3345.359619 793.810303,3085.038086 
	C793.760132,3008.120605 807.679504,2933.980469 836.291321,2862.645996 
	C860.554626,2802.152588 894.131714,2747.188232 935.767456,2697.080566 
	C1000.059265,2619.706787 1077.840088,2558.847900 1165.024536,2509.456543 
	C1258.734985,2456.367432 1358.689453,2419.137695 1462.702515,2392.221680 
	C1524.670288,2376.185791 1587.388672,2364.049072 1650.834351,2355.499756 
	C1687.133301,2350.608643 1723.461548,2346.188477 1760.914062,2343.710938 
	C1766.667480,2342.191895 1771.666626,2343.460938 1777.298218,2342.511230 
	C1792.682861,2341.431152 1807.269653,2339.499756 1822.895752,2339.694092 
	C1831.981079,2338.120605 1840.240234,2339.515625 1849.232544,2338.514648 
	C1859.306763,2337.962646 1868.582520,2337.788086 1878.770264,2337.644531 
	C1902.609985,2336.132324 1925.563965,2337.296875 1948.504639,2337.044434 
	C1964.481445,2336.868408 1980.463379,2336.894775 1997.392212,2337.362793 
	C2037.885376,2337.662109 2077.295654,2340.187988 2116.691650,2343.413330 
	C2133.893555,2344.821533 2151.092285,2346.184814 2169.107666,2348.105469 
	C2172.768799,2349.806152 2175.874023,2348.591553 2179.497803,2349.372559 
	C2204.149170,2351.173828 2227.817383,2355.090576 2251.507812,2358.596436 
	C2300.598877,2365.860840 2349.242920,2375.490234 2397.479492,2387.243652 
	C2467.852051,2404.391113 2536.603027,2426.418457 2603.344727,2454.600342 
	C2684.153320,2488.722168 2760.104004,2531.303223 2829.167236,2585.620117 
	C2897.066895,2639.021484 2955.310791,2701.262695 3000.111084,2775.468994 
	C3041.955566,2844.779785 3069.084717,2919.411377 3080.291748,2999.734375 
	C3084.117432,3027.155029 3086.143066,3054.659912 3086.137695,3082.347656 
	C3086.087646,3346.273926 3086.093994,3610.200439 3086.042236,3875.063477 
	C2322.624756,3876.000000 1559.249756,3876.000000 794.937317,3876.000000 
z"/>
<path fill="#FFFFFF" opacity="1.000000" stroke="none" 
	d="
M2013.433838,779.384766 
	C2050.827393,782.526306 2086.722168,789.667297 2122.189453,798.992554 
	C2226.690430,826.468506 2320.041992,875.392944 2402.498779,945.186890 
	C2471.984131,1004.001587 2528.055908,1073.611938 2571.132080,1153.803101 
	C2609.829590,1225.843506 2635.053223,1302.349854 2647.471924,1383.074463 
	C2651.267090,1407.744141 2652.972656,1432.654053 2654.698975,1457.588501 
	C2656.757080,1487.321655 2655.617676,1516.915161 2653.452148,1546.426514 
	C2649.739014,1597.034180 2640.518555,1646.770630 2625.918945,1695.457031 
	C2597.285889,1790.943726 2550.762207,1876.704590 2486.457031,1952.858398 
	C2430.614014,2018.990967 2364.854736,2073.068604 2289.432617,2115.496338 
	C2223.241211,2152.731445 2152.832764,2178.527344 2078.387695,2193.208496 
	C2050.627930,2198.683105 2022.578491,2202.186523 1994.314819,2204.441406 
	C1962.998413,2206.940430 1931.666748,2207.059082 1900.430908,2205.502197 
	C1845.048340,2202.742188 1790.646851,2193.248291 1737.398682,2177.517578 
	C1669.483765,2157.454590 1605.905640,2127.958496 1546.835571,2088.976807 
	C1495.713501,2055.240479 1449.554810,2015.655884 1408.518555,1970.051758 
	C1363.408936,1919.921021 1325.850586,1864.720825 1296.394531,1804.134644 
	C1263.676147,1736.838867 1241.833496,1666.127563 1231.640259,1591.873047 
	C1226.376099,1553.525024 1223.345703,1515.030273 1224.428833,1476.356689 
	C1226.273804,1410.475342 1236.018677,1345.811523 1255.321777,1282.623413 
	C1283.040771,1191.886108 1327.121216,1109.983765 1387.167969,1036.671509 
	C1428.362427,986.376221 1475.765259,942.684204 1528.980103,905.298828 
	C1586.644653,864.787415 1648.905640,833.416687 1715.798462,811.286499 
	C1760.834351,796.387207 1806.995972,786.410461 1854.031616,780.428345 
	C1857.989746,779.924866 1862.008179,779.894897 1866.888184,779.618164 
	C1871.349976,778.390930 1875.056519,779.336365 1879.349609,778.504517 
	C1919.426392,774.844788 1958.833496,774.742432 1999.116211,778.027100 
	C2004.089844,780.055420 2008.476318,778.453857 2013.433838,779.384766 
z"/>
<path fill="#DBECEC" opacity="1.000000" stroke="none" 
	d="
M1997.589844,2337.255127 
	C1976.060913,2337.742920 1953.780151,2337.874268 1931.499023,2337.930664 
	C1914.867920,2337.972900 1898.236694,2337.918701 1880.643799,2337.791504 
	C1882.053223,2336.206787 1884.706299,2336.101074 1887.375366,2336.101074 
	C1922.230225,2336.102783 1957.085205,2336.098389 1991.940063,2336.145264 
	C1993.572876,2336.147461 1995.205322,2336.615723 1997.589844,2337.255127 
z"/>
<path fill="#E1E2E2" opacity="1.000000" stroke="none" 
	d="
M1849.112793,2338.042480 
	C1842.114990,2341.497070 1833.802002,2339.416504 1824.747437,2339.801270 
	C1831.755737,2336.480469 1840.063721,2338.454102 1849.112793,2338.042480 
z"/>
<path fill="#E1E2E2" opacity="1.000000" stroke="none" 
	d="
M1777.178467,2342.035645 
	C1773.461426,2344.879150 1768.421143,2343.771240 1762.673706,2343.791016 
	C1766.410889,2341.076660 1771.448608,2342.169922 1777.178467,2342.035645 
z"/>
<path fill="#E1E2E2" opacity="1.000000" stroke="none" 
	d="
M2013.501831,779.300171 
	C2009.856445,780.021423 2005.523804,780.462280 2000.653809,778.474243 
	C2004.298462,777.858704 2008.619507,777.477539 2013.501831,779.300171 
z"/>
<path fill="#E1E2E2" opacity="1.000000" stroke="none" 
	d="
M1879.227051,778.016541 
	C1876.752686,780.374817 1873.036865,779.900635 1868.581909,779.709106 
	C1871.080688,777.442627 1874.797241,777.952026 1879.227051,778.016541 
z"/>
<path fill="#E1E2E2" opacity="1.000000" stroke="none" 
	d="
M2179.552734,2349.275635 
	C2177.157715,2350.059570 2174.136719,2350.232910 2170.598633,2348.550781 
	C2172.993408,2347.835938 2176.006348,2347.695557 2179.552734,2349.275635 
z"/>
</svg>