<svg xmlns="http://www.w3.org/2000/svg" version="1.1"
    xmlns:xlink="http://www.w3.org/1999/xlink" width="512" height="512" x="0" y="0" viewBox="0 0 512 512" style="enable-background:new 0 0 512 512" xml:space="preserve" class="">
    <g transform="matrix(0.8500000000000003,0,0,0.8500000000000003,38.399954223632676,38.39999999999992)">
        <path d="M363.335 488a24 24 0 0 1-24 24H113.082a80.09 80.09 0 0 1-80-80V80a80.09 80.09 0 0 1 80-80h226.253a24 24 0 0 1 0 48H113.082a32.035 32.035 0 0 0-32 32v352a32.034 32.034 0 0 0 32 32h226.253a24 24 0 0 1 24 24zm108.553-248.97L357.837 124.978a24 24 0 1 0-33.937 33.941L396.977 232H208.041a24 24 0 1 0 0 48h188.935l-73.08 73.08a24 24 0 1 0 33.941 33.941l114.051-114.05a24 24 0 0 0 0-33.941z" fill="current" opacity="1" data-original="#000000" class=""></path>
    </g>
</svg>