<svg xmlns="http://www.w3.org/2000/svg" version="1.1"
    xmlns:xlink="http://www.w3.org/1999/xlink" width="512" height="512" x="0" y="0" viewBox="0 0 512 512" style="enable-background:new 0 0 512 512" xml:space="preserve" class="">
    <g>
        <path d="M268.58 304.36c-7.18 0-13 5.82-13 13-.006 33.651-27.289 60.925-60.94 60.92-33.651-.006-60.926-27.289-60.92-60.94.006-33.647 27.283-60.92 60.93-60.92 7.18 0 13-5.82 13-13s-5.82-13-13-13c-48.002.033-86.907 38.938-86.94 86.94 0 48.013 38.922 86.935 86.935 86.935s86.935-38.922 86.935-86.935c0-7.18-5.82-13-13-13z" fill="current" opacity="1" data-original="#000000" class=""></path>
        <path d="M371.86 347.26c-1.24-7.072-7.978-11.8-15.05-10.56l-27.21 4.77a13 13 0 0 0-10.31 9.43 128.283 128.283 0 0 1-12.77 30.77 12.998 12.998 0 0 0 .62 14l15.88 22.63a7.92 7.92 0 0 1-.88 10.17l-16.32 16.32a7.92 7.92 0 0 1-10.16.89l-22.63-15.88a12.998 12.998 0 0 0-14-.62 128.168 128.168 0 0 1-30.77 12.77 13 13 0 0 0-9.43 10.31L214 479.44a7.92 7.92 0 0 1-7.81 6.56H183.1a7.92 7.92 0 0 1-7.81-6.56l-4.77-27.2a13 13 0 0 0-9.43-10.31 128.37 128.37 0 0 1-30.78-12.77 12.998 12.998 0 0 0-14 .62l-22.59 15.87a7.92 7.92 0 0 1-10.17-.88l-16.32-16.32a7.93 7.93 0 0 1-.89-10.16l15.88-22.63a13 13 0 0 0 .62-14 128.007 128.007 0 0 1-12.77-30.77 13 13 0 0 0-10.31-9.43l-27.2-4.77A7.92 7.92 0 0 1 26 328.9v-23.09a7.92 7.92 0 0 1 6.56-7.81l27.2-4.77a13 13 0 0 0 10.31-9.43A128.024 128.024 0 0 1 82.84 253a13 13 0 0 0-.62-14l-15.87-22.56a7.92 7.92 0 0 1 .88-10.17l16.33-16.33a7.92 7.92 0 0 1 10.16-.88l22.63 15.88a12.998 12.998 0 0 0 14 .62 128.256 128.256 0 0 1 30.78-12.77 13 13 0 0 0 9.43-10.31l4.77-27.2c1.24-7.072-3.488-13.81-10.56-15.05s-13.81 3.488-15.05 10.56l-3.38 19.3a154.266 154.266 0 0 0-21.59 9l-16.05-11.26c-13.484-9.488-31.841-7.888-43.48 3.79l-16.38 16.27c-11.667 11.645-13.262 29.996-3.78 43.48l11.26 16.05a154.048 154.048 0 0 0-9 21.6l-19.3 3.38C11.802 275.248-.02 289.344 0 305.81v23.09c-.021 16.482 11.823 30.589 28.06 33.42l19.3 3.39a153.977 153.977 0 0 0 9 21.59l-11.3 16.05c-9.479 13.486-7.88 31.837 3.79 43.48l16.33 16.32c11.643 11.671 29.997 13.266 43.48 3.78l16-11.26a154.386 154.386 0 0 0 21.59 9l3.38 19.3c2.848 16.244 16.978 28.078 33.47 28.03h23.09c16.486.02 30.593-11.829 33.42-28.07l3.39-19.3a154.216 154.216 0 0 0 21.59-9l16.06 11.26c13.485 9.484 31.839 7.884 43.48-3.79l16.33-16.33c11.67-11.643 13.269-29.994 3.79-43.48l-11.25-16a154.386 154.386 0 0 0 9-21.59l19.3-3.39c7.072-1.24 11.8-7.978 10.56-15.05z" fill="current" opacity="1" data-original="#000000" class=""></path>
        <path d="m487.6 118-13.6-2.38a124.464 124.464 0 0 0-6-14.35L476 90c8.242-11.72 6.853-27.671-3.29-37.79L459.83 39.3C449.706 29.136 433.731 27.742 422 36l-11.31 7.93a124.111 124.111 0 0 0-14.35-6L394 24.39C391.538 10.272 379.271-.023 364.94 0h-18.19c-14.33-.018-26.593 10.282-29.05 24.4L315.31 38a124.111 124.111 0 0 0-14.35 6l-11.31-8c-11.72-8.242-27.671-6.853-37.79 3.29L239 52.17c-10.164 10.124-11.558 26.099-3.3 37.83l7.93 11.31a124.111 124.111 0 0 0-6 14.35L224.08 118c-14.114 2.462-24.408 14.723-24.39 29.05v18.19c-.028 14.334 10.269 26.607 24.39 29.07l13.59 2.38a124.111 124.111 0 0 0 6 14.35l-7.94 11.31c-8.243 11.716-6.863 27.664 3.27 37.79L251.86 273c10.121 10.149 26.078 11.538 37.8 3.29l11.34-7.93a124.538 124.538 0 0 0 14.35 6l2.39 13.6c2.462 14.114 14.723 24.408 29.05 24.39h18.19c14.331 0 26.582-10.317 29.02-24.44l2.38-13.59a124.111 124.111 0 0 0 14.35-6L422 276.3c11.73 8.262 27.708 6.868 37.83-3.3l12.87-12.87c10.137-10.117 11.529-26.059 3.3-37.78L468.05 211a124.538 124.538 0 0 0 6-14.35l13.6-2.39c14.083-2.476 24.352-14.711 24.35-29.01v-18.19c.023-14.334-10.278-26.602-24.4-29.06zm-1.6 47.28a3.49 3.49 0 0 1-2.89 3.44l-21.44 3.76a13 13 0 0 0-10.31 9.43 98.323 98.323 0 0 1-9.79 23.59 12.998 12.998 0 0 0 .62 14l12.51 17.84a3.49 3.49 0 0 1-.39 4.48l-12.86 12.86a3.49 3.49 0 0 1-4.45.32l-17.87-12.5a12.998 12.998 0 0 0-14-.62 98.242 98.242 0 0 1-23.59 9.79 13 13 0 0 0-9.39 10.33l-3.76 21.44a3.49 3.49 0 0 1-3.44 2.89h-18.2a3.49 3.49 0 0 1-3.44-2.89L339.54 262a13 13 0 0 0-9.43-10.31 98.411 98.411 0 0 1-23.6-9.79 12.998 12.998 0 0 0-14 .62L274.72 255a3.49 3.49 0 0 1-4.48-.39l-12.86-12.86a3.49 3.49 0 0 1-.39-4.48l12.51-17.84a12.998 12.998 0 0 0 .62-14 98.145 98.145 0 0 1-9.79-23.59 12.999 12.999 0 0 0-10.33-9.38l-21.44-3.76a3.49 3.49 0 0 1-2.89-3.44l.01-18.2a3.49 3.49 0 0 1 2.89-3.44l21.43-3.77a13 13 0 0 0 10.31-9.43 98.242 98.242 0 0 1 9.79-23.59 12.998 12.998 0 0 0-.62-14L257 75a3.49 3.49 0 0 1 .39-4.48l12.87-12.87a3.49 3.49 0 0 1 4.48-.39l17.83 12.51a13 13 0 0 0 14 .62 98.242 98.242 0 0 1 23.59-9.79 13 13 0 0 0 9.43-10.31l3.76-21.44a3.49 3.49 0 0 1 3.4-2.85h18.19a3.49 3.49 0 0 1 3.44 2.89l3.76 21.44a13 13 0 0 0 9.43 10.31 98.145 98.145 0 0 1 23.59 9.79 12.998 12.998 0 0 0 14-.62L437 57.3a3.49 3.49 0 0 1 4.48.39l12.87 12.87a3.489 3.489 0 0 1 .35 4.44l-12.51 17.87a12.998 12.998 0 0 0-.62 14 98.323 98.323 0 0 1 9.79 23.59 13 13 0 0 0 10.31 9.43l21.44 3.76a3.49 3.49 0 0 1 2.89 3.44v18.19z" fill="current" opacity="1" data-original="#000000" class=""></path>
        <path d="M355.84 94.05c-34.302 0-62.11 27.808-62.11 62.11.039 34.286 27.824 62.071 62.11 62.11 34.302 0 62.11-27.808 62.11-62.11s-27.808-62.11-62.11-62.11zm0 98.22c-19.943 0-36.11-16.167-36.11-36.11-.005-19.953 16.157-36.138 36.11-36.16v.05c19.943 0 36.11 16.167 36.11 36.11 0 19.943-16.167 36.11-36.11 36.11z" fill="current" opacity="1" data-original="#000000" class=""></path>
    </g>
</svg>