<svg version="1.1" id="Layer_1"
	xmlns="http://www.w3.org/2000/svg"
	xmlns:xlink="http://www.w3.org/1999/xlink" x="0px" y="0px" width="100%" viewBox="0 0 1100 877" enable-background="new 0 0 1100 877" xml:space="preserve">
	<path fill="#FFFFFF" opacity="1.000000" stroke="none" d="
M767.000000,878.000000
	C513.032043,878.000000 259.564056,877.990051 6.096135,878.091064
	C2.122634,878.092651 0.866830,877.589050 0.869085,873.097290
	C1.014248,583.967224 1.011665,294.837097 0.883874,5.707032
	C0.882042,1.562684 1.826692,0.894211 5.791851,0.895440
	C369.245911,1.008024 732.699951,1.007218 1096.154053,0.903218
	C1100.006592,0.902115 1101.124878,1.392784 1101.122803,5.652878
	C1100.987305,294.949585 1100.990601,584.246399 1101.100830,873.543091
	C1101.102295,877.397156 1100.102905,878.090088 1096.457886,878.086548
	C986.805359,877.980225 877.152649,878.000000 767.000000,878.000000
z"/>
	<path fill="#012940" opacity="1.000000" stroke="none" d="
M600.457031,295.472290
	C564.244446,281.111053 527.085327,276.334106 488.878967,281.082367
	C392.791473,293.024048 317.476532,364.432037 297.993103,455.092041
	C293.737854,474.892517 291.908600,494.934723 293.549194,515.162720
	C293.904175,519.539062 291.458984,518.747009 289.044708,518.747314
	C250.214996,518.752502 211.385269,518.750977 172.555557,518.750977
	C132.892578,518.750977 93.229614,518.750977 53.566639,518.750977
	C51.804504,518.750977 50.042370,518.750977 47.961651,518.750977
	C50.266827,512.724731 55.476845,512.008240 59.976505,511.147125
	C80.290062,507.259705 99.322205,500.041473 117.425438,490.180420
	C128.701920,484.038025 139.141373,476.731659 149.043762,468.536499
	C167.043945,453.639709 181.908890,436.052643 193.418411,415.863708
	C202.699722,399.583282 209.160324,382.085785 213.151184,363.610138
	C216.410873,348.519379 217.519348,333.376617 216.941422,318.077240
	C216.207901,298.658478 212.019287,279.887512 205.257935,261.683228
	C199.090408,245.077728 190.490128,229.735764 179.820892,215.702194
	C171.763184,205.103592 162.782547,195.245651 152.447922,186.621414
	C148.206314,183.081818 146.862793,177.322708 148.203293,171.730301
	C149.472427,166.435638 152.726425,162.608154 158.259109,160.989792
	C164.955582,159.031021 170.567688,161.005737 175.743774,165.228806
	C191.904984,178.414490 209.851776,188.453445 229.273331,196.042114
	C244.252457,201.894958 259.792755,205.524307 275.584839,207.859879
	C290.538818,210.071457 305.796570,210.085876 320.755951,208.761551
	C349.338074,206.231247 376.482086,198.056198 401.699768,184.034821
	C420.273285,173.707703 436.909271,160.831558 451.229187,145.172287
	C473.015137,121.348717 488.180969,93.740486 495.698547,62.311440
	C498.262238,51.593342 499.586670,40.540379 500.390106,29.405018
	C500.815460,23.509802 498.926727,16.898619 503.113586,11.298505
	C507.214050,5.813991 514.355957,3.161106 521.336914,5.116668
	C527.430237,6.823586 532.072693,13.050815 531.972351,19.895338
	C531.673096,40.314297 535.430298,60.040401 542.010132,79.271080
	C548.704956,98.837517 558.602600,116.669296 571.400513,132.922607
	C588.523071,154.668106 609.296814,171.995453 633.731262,184.979248
	C653.534119,195.501923 674.457153,202.393463 696.610474,206.187851
	C711.689270,208.770523 726.803284,209.807175 741.897034,208.815109
	C764.256042,207.345551 786.061646,202.711746 806.916687,194.056168
	C825.870728,186.189545 843.262939,175.781677 859.373657,163.141144
	C866.015625,157.929825 875.667480,159.555374 880.961365,166.491501
	C885.033569,171.826935 885.441589,180.624451 878.882202,186.706665
	C866.923523,197.795517 856.054504,209.881699 846.994873,223.511703
	C833.173157,244.306091 823.895142,267.047729 819.159180,291.471039
	C816.501343,305.177551 815.072693,319.186920 816.063538,333.207214
	C817.485474,353.326935 821.217468,372.995514 828.964478,391.756500
	C837.125488,411.520355 848.021240,429.511841 862.074890,445.743256
	C877.456116,463.507935 895.514832,477.658661 915.963501,489.037659
	C931.828186,497.865875 948.712891,503.971741 966.179138,508.565521
	C971.952087,510.083893 977.916382,510.875244 983.793823,511.995911
	C987.623352,512.726074 990.747498,514.534119 992.905090,517.722534
	C992.459961,519.374451 991.266724,518.779053 990.395142,518.779053
	C909.402893,518.783997 828.410645,518.766602 747.418396,518.751160
	C739.928772,518.749695 740.106323,518.752258 740.169067,510.536682
	C740.891113,415.964172 698.756836,346.937134 615.813232,302.348907
	C610.999512,299.761169 605.809570,297.873322 600.457031,295.472290
z"/>
	<path fill="#002940" opacity="1.000000" stroke="none" d="
M246.706573,725.790833
	C243.543442,729.957458 239.451233,731.013245 234.841553,731.011108
	C194.365387,730.992004 153.889206,731.005798 113.413040,730.994995
	C105.621780,730.992920 105.000092,730.347473 105.000076,722.667664
	C104.999985,685.356262 104.999832,648.044922 105.000206,610.733521
	C105.000275,603.849365 105.810455,603.015198 113.012436,603.009399
	C141.329071,602.986511 169.657928,603.479492 197.956360,602.761353
	C209.103226,602.478516 217.743546,605.002563 224.651169,613.953491
	C227.625671,617.807861 231.272415,621.276794 235.469101,624.069946
	C238.017212,625.765747 239.140488,628.433655 239.055252,631.724243
	C238.874161,638.715515 239.114624,645.717468 238.939499,652.708984
	C238.875961,655.245422 239.760330,656.537659 242.024216,657.577698
	C246.864990,659.801514 251.525345,662.415527 256.343140,664.692993
	C258.827911,665.867615 260.093567,667.348694 260.060760,670.312988
	C259.918732,683.137207 259.940247,695.964355 260.042847,708.789307
	C260.067810,711.910034 258.574829,714.013306 256.523315,716.016907
	C253.306625,719.158569 250.151917,722.363647 246.706573,725.790833
z"/>
	<path fill="#002940" opacity="1.000000" stroke="none" d="
M402.122131,605.616211
	C409.239014,610.677551 414.419037,617.228760 420.347565,622.982422
	C421.575989,624.174622 422.064575,625.980225 422.044067,627.923157
	C421.945618,637.249634 421.951752,646.578186 422.030182,655.905029
	C422.052765,658.587097 420.955017,660.565002 419.121735,662.367554
	C415.085358,666.336426 411.232788,670.500000 407.074097,674.333435
	C405.018402,676.228394 404.725128,677.749268 405.971924,680.287231
	C412.085632,692.732300 418.032166,705.260193 423.935791,717.806885
	C424.881317,719.816345 425.633392,722.029419 425.902344,724.218689
	C426.316833,727.592834 425.798065,730.254089 421.096100,730.085876
	C412.612244,729.782410 404.101837,729.787476 395.618896,730.103699
	C392.184326,730.231750 391.086029,728.535400 389.995483,725.927246
	C384.723022,713.317627 379.282379,700.777954 374.073914,688.142273
	C373.037048,685.626831 371.706757,684.907715 369.024963,684.927429
	C350.370941,685.064819 331.714752,685.075562 313.060883,684.927124
	C309.875031,684.901794 308.856140,685.632446 308.915253,688.978882
	C309.130005,701.134155 308.898163,713.296997 309.064209,725.453857
	C309.111755,728.934204 308.005219,730.143311 304.483063,730.065857
	C295.493011,729.868164 286.493439,729.885620 277.502655,730.066528
	C274.647125,730.123962 273.934021,729.256714 273.940308,726.462646
	C274.028381,687.153931 274.011932,647.845032 273.972992,608.536133
	C273.970428,605.956543 274.187439,604.253906 277.460754,603.716919
	C279.004425,603.463623 280.613068,603.023926 282.210632,603.022644
	C319.021057,602.993286 355.831482,603.004089 392.641937,602.992920
	C395.925903,602.991882 399.075195,603.426636 402.122131,605.616211
z"/>
	<path fill="#002940" opacity="1.000000" stroke="none" d="
M794.000000,722.928711
	C793.998840,729.999756 793.998840,729.999878 787.538269,730.000000
	C779.705322,730.000122 771.867554,729.839661 764.041809,730.077026
	C760.801697,730.175354 759.880554,729.297668 759.918823,725.996399
	C760.100464,710.332642 759.898865,694.664429 760.081543,679.000732
	C760.120117,675.693848 759.181274,674.906189 755.957275,674.925354
	C732.625977,675.064453 709.292908,675.075867 685.961975,674.915527
	C682.584900,674.892334 681.895813,675.925903 681.928833,679.081421
	C682.087341,694.245667 681.889832,709.413757 682.074890,724.577393
	C682.123169,728.534607 681.302185,730.278870 676.852417,730.103027
	C668.033325,729.754395 659.189453,729.916443 650.358704,730.053101
	C647.860596,730.091736 646.930237,729.578125 646.936707,726.815491
	C647.029602,686.984375 647.021240,647.153015 646.950623,607.321838
	C646.946167,604.799316 647.507202,603.882385 650.221741,603.934692
	C659.217896,604.108154 668.223328,604.151794 677.217224,603.927124
	C680.950073,603.833923 682.119568,605.061523 682.072815,608.785278
	C681.893127,623.115601 682.134033,637.451660 681.906067,651.780640
	C681.848877,655.376709 682.901428,656.106628 686.324646,656.083130
	C709.489014,655.923889 732.655762,655.909302 755.819763,656.093811
	C759.465759,656.122803 760.126160,655.002136 760.081299,651.636414
	C759.890015,637.306396 760.113037,622.970825 759.919250,608.640869
	C759.871826,605.134888 760.406860,603.709229 764.407349,603.887756
	C772.723694,604.259033 781.082397,604.289490 789.395203,603.880493
	C793.690491,603.669189 794.076294,605.395813 794.066284,608.943359
	C793.959534,646.774414 794.000000,684.605957 794.000000,722.928711
z"/>
	<path fill="#002940" opacity="1.000000" stroke="none" d="
M529.000000,692.623840
	C528.656921,695.374084 529.748596,696.925354 531.099243,698.781921
	C537.865295,708.082581 546.581604,711.189087 558.068298,710.233765
	C570.481506,709.201294 583.046997,710.000854 595.546082,709.999573
	C601.897766,709.998962 601.961426,709.997498 601.986267,703.235291
	C602.033508,690.403076 602.214844,677.565063 601.887878,664.741028
	C601.767212,660.010559 603.227234,658.596191 607.832947,658.908752
	C613.473267,659.291626 619.178101,659.283264 624.819519,658.909119
	C629.223267,658.617126 630.111694,660.385376 630.077637,664.391235
	C629.907837,684.388306 629.972839,704.387695 630.027710,724.386108
	C630.036560,727.593994 630.240906,730.252319 625.570435,730.305176
	C624.025208,730.322571 622.101196,730.972656 620.337463,730.974670
	C589.839722,731.009888 559.341858,730.975525 528.844238,731.024292
	C523.834290,731.032349 519.778259,729.413696 516.184998,725.791016
	C509.892853,719.447449 503.329651,713.367676 496.759430,707.308167
	C494.794525,705.496033 493.919342,703.657654 493.932312,700.897827
	C494.048401,676.233521 494.027954,651.568359 493.953979,626.903687
	C493.947083,624.599304 494.398193,622.853394 496.173370,621.235535
	C501.915222,616.002441 507.479126,610.574524 513.189392,605.306091
	C515.183105,603.466675 517.744751,602.993591 520.413574,602.994324
	C553.411194,603.003174 586.408752,602.986084 619.406372,603.013672
	C624.942139,603.018311 625.986145,604.149536 625.998901,609.634583
	C626.005127,612.301025 625.822144,614.982117 626.039062,617.630798
	C626.423584,622.325378 624.551086,624.105408 619.747559,624.074036
	C595.250366,623.913696 570.751648,623.998962 546.253418,624.000488
	C537.865356,624.001038 529.000061,632.828247 529.000061,641.173950
	C528.999939,658.172668 529.000000,675.171448 529.000000,692.623840
z"/>
	<path fill="#002940" opacity="1.000000" stroke="none" d="
M853.826660,625.000244
	C840.011902,625.000000 826.683044,624.977539 813.354370,625.009460
	C806.585693,625.025635 805.779785,622.998230 805.898010,617.627563
	C806.197876,604.004517 805.992676,604.000000 819.426941,604.000000
	C858.746765,604.000000 898.066833,604.047546 937.386230,603.919250
	C940.935181,603.907715 942.520752,604.473938 942.084534,608.435364
	C941.685852,612.056824 941.694885,615.789001 942.076843,619.414124
	C942.559998,623.999451 940.396667,625.076355 936.382385,625.040710
	C923.887634,624.929565 911.391357,625.000000 898.895630,625.000000
	C892.000061,625.000061 892.000000,625.000061 892.000000,632.142151
	C892.000000,663.131531 891.942993,694.121155 892.075928,725.109985
	C892.091553,728.762695 891.527710,730.307190 887.345032,730.113770
	C879.032288,729.729431 870.679688,729.762329 862.362854,730.099731
	C858.167847,730.269836 856.833740,729.412231 856.869446,724.818665
	C857.117188,692.998169 857.016235,661.174866 856.957397,629.352478
	C856.954102,627.553467 858.249573,624.573303 853.826660,625.000244
z"/>
	<path fill="#002940" opacity="1.000000" stroke="none" d="
M440.000000,704.000000
	C440.000000,671.850220 440.067078,640.200195 439.909210,608.551147
	C439.890869,604.878235 440.673401,603.761230 444.490997,603.897339
	C453.474792,604.217712 462.479858,604.109741 471.471680,603.935364
	C474.288483,603.880737 475.068146,604.679688 475.061646,607.512146
	C474.970612,647.157471 474.972504,686.803040 475.058655,726.448364
	C475.064667,729.222107 474.388092,730.123474 471.511078,730.067566
	C462.186249,729.886292 452.853729,729.893372 443.528534,730.064575
	C440.712555,730.116272 439.858307,729.329163 439.934479,726.486511
	C440.130676,719.162354 440.000061,711.829407 440.000000,704.000000
z"/>
	<path fill="#FFFFFF" opacity="1.000000" stroke="none" d="
M184.000000,670.000000
	C193.325195,670.000000 202.150436,669.984436 210.975510,670.017029
	C212.276199,670.021851 213.668716,669.995728 214.861786,670.422668
	C225.439789,674.207397 226.000000,675.059875 226.000000,686.428345
	C226.000000,688.093506 225.661270,689.844177 226.056625,691.409485
	C228.149094,699.693848 222.616196,704.150574 217.608261,708.976074
	C216.313065,710.224060 214.906418,709.989380 213.464691,709.990234
	C190.485901,710.004089 167.506775,709.940369 144.528641,710.063416
	C141.032288,710.082153 139.875885,708.967651 139.934921,705.468933
	C140.114685,694.815186 140.100021,684.154785 139.933624,673.500610
	C139.889053,670.646606 140.741776,669.907471 143.537537,669.937012
	C156.857086,670.077759 170.178955,670.000061 184.000000,670.000000
z"/>
	<path fill="#FFFFFF" opacity="1.000000" stroke="none" d="
M195.623871,624.000000
	C198.373169,623.657593 199.903046,624.826355 201.782867,626.086792
	C212.306168,633.142761 213.031693,643.446411 212.085098,654.584595
	C211.866486,657.156982 210.616425,657.012268 208.882202,657.010925
	C186.890091,656.993774 164.897766,656.956909 142.906097,657.057007
	C140.339676,657.068665 139.928329,656.104919 139.956833,653.864807
	C140.064911,645.369202 140.151245,636.867554 139.930084,628.376343
	C139.833862,624.682373 141.385361,623.921814 144.688629,623.945190
	C161.515106,624.064026 178.342880,624.000000 195.623871,624.000000
z"/>
	<path fill="#FFFFFF" opacity="1.000000" stroke="none" d="
M382.795563,630.299622
	C386.142120,632.997131 387.525848,636.129700 387.012024,640.071594
	C386.926697,640.726196 386.883270,641.426025 387.017334,642.063599
	C389.433807,653.556519 381.938049,659.512390 374.134094,665.363220
	C372.871033,666.310059 371.609680,665.970398 370.356262,665.972900
	C351.216522,666.011780 332.076385,665.951660 312.937073,666.053711
	C310.161011,666.068481 308.833740,665.789307 308.907135,662.402222
	C309.152313,651.090027 309.117828,639.767334 308.931427,628.452942
	C308.872223,624.860107 310.205933,623.920410 313.602997,623.940857
	C333.574280,624.061218 353.547760,624.113708 373.517822,623.917053
	C378.279663,623.870239 379.575073,627.960022 382.795563,630.299622
z"/>
</svg>
