<?xml version="1.0" encoding="utf-8"?>
<!-- Generator: Adobe Illustrator 27.0.0, SVG Export Plug-In . SVG Version: 6.00 Build 0)  -->
<svg version="1.1" id="Layer_1" xmlns="http://www.w3.org/2000/svg" xmlns:xlink="http://www.w3.org/1999/xlink" x="0px" y="0px"
	 viewBox="0 0 595.3 802" style="enable-background:new 0 0 595.3 802;" xml:space="preserve">
<style type="text/css">
	.st0{fill:#F2DF7F;}
</style>
<path class="st0" d="M224.5,279.1c13.8-9,24.7-20.5,33-34.6c5.9-10.1,10-20.8,11.9-32.2c1-5.8,1.4-11.7,1.7-17.6
	c0.3-4.7,2.9-7.9,7.2-8c6.1-0.1,9.7,2.7,9.6,7.9c-0.1,10.8,1.7,21.2,5.1,31.3c4.2,12.6,10.9,23.8,19.6,33.9
	c12.1,13.9,26.8,23.8,44,30.3c9.6,3.6,19.5,5.6,29.7,6.5c18,1.6,35.3-1.3,51.9-8.3c9.5-4,18.3-9,26.1-15.7c3.5-3,9.2-2.5,11.9,0.7
	c3.2,3.7,3,8.3-0.9,12c-9.1,8.6-17.1,18.2-22.7,29.4c-5.1,10.2-8.9,20.9-9.9,32.3c-0.5,5.6-1.2,11.3-1,16.9
	c0.5,11.5,3,22.6,7.4,33.3c4.1,9.8,9.3,18.9,16.3,26.7c5.6,6.1,11.7,11.9,18.2,17c11.7,9.1,25.2,14.8,39.6,18.3
	c2.5,0.6,5.1,0.7,7.6,1.5c2.2,0.6,4.3,1.8,6.4,2.7c-0.1,0.3-0.2,0.6-0.3,0.9c-45.4,0-90.7,0-136.4,0c1.5-44.5-14.8-80.6-51.1-106.9
	c-22.4-16.2-48-23.2-75.5-22c-21.8,0.9-42,7.4-60.4,19.3c-18.4,12-32.6,27.7-42.5,47.3c-9.8,19.5-14.1,40.3-12.4,62.3
	c-44.4,0-88.5,0-133,0c2.3-3.2,5.6-3.5,8.6-4.1c12.3-2.6,23.7-7.3,34.4-13.9c8.3-5.1,15.7-11.3,22.3-18.5
	c12.2-13.5,20.4-29,24.3-46.8c1.9-8.8,2.5-17.6,2-26.4c-0.7-11.2-3.3-22-7.7-32.4c-3.6-8.5-8.2-16.3-14-23.4
	c-3.9-4.8-8.4-9.1-12.8-13.5c-3.5-3.6-3.8-8.2-0.8-11.8c2.5-3,7.5-3.4,11.3-0.9c7.4,4.7,14.5,9.9,22.2,14c10,5.3,20.8,8.6,32.1,9.7
	c8.2,0.8,16.5,1.5,24.7,1c12.2-0.7,24-3.6,35.1-8.7C213.3,285.6,218.7,282.3,224.5,279.1z"/>
<path class="st0" d="M140.7,552c0,5,0,9.6,0,14.3c0,0.7,0.2,1.7-0.2,2.1c-2.8,3.2-5.6,6.6-8.8,9.4c-1.3,1.1-3.7,1.2-5.6,1.2
	c-21.4,0.1-42.7,0-64.1,0c-0.9,0-1.8,0-2.7-0.2c-1.6-0.3-2.5-1.1-2.5-3.1c0.1-20.9,0.1-41.8,0-62.8c0-2,0.8-2.8,2.5-3.1
	c0.9-0.2,1.8-0.2,2.7-0.2c16.4,0,32.8,0,49.2,0c3,0,5.5,0.9,7.6,3.2c2.7,3,5.9,5.5,8.7,8.4c1,1,1.7,2.6,1.8,4
	c0.2,3.7,0.2,7.4,0,11.1c-0.1,1.6,0.6,2.5,2,3.1c2.2,1,4.3,2.3,6.5,3.2c2.3,0.9,3.2,2.3,2.9,4.7C140.6,548.8,140.7,550.3,140.7,552
	 M82,546c-2,0-4.1,0-6.2,0c0,6.6,0.1,12.7,0,18.8c-0.1,2.3,0.9,2.9,3,2.9c11.6-0.1,23.2-0.1,34.8,0c2.5,0,4.3-0.7,6.1-2.5
	c2-1.9,2.9-3.9,2.6-6.6c-0.2-2.5,0-5-0.1-7.6c0-0.7-0.3-1.9-0.7-2.1c-2.7-1.1-5.4-2.7-8.2-2.8C103.1,545.8,92.8,546,82,546
	 M111.8,524.9c-1.7-1.3-3.3-3.6-5-3.6c-9.6-0.4-19.3-0.2-28.9-0.1c-0.7,0-2,0.9-2,1.5c-0.1,5.4-0.1,10.7-0.1,16.1
	c13.2,0,26,0,38.9,0c0-2.5-0.2-4.7,0-6.9C115,529.1,114.3,526.9,111.8,524.9z"/>
<path class="st0" d="M187.2,554.1c-6.7,0-13.2,0-20,0c0,5,0,9.8,0,14.5c0,2.5,0.1,5.1-0.1,7.6c-0.1,0.8-1,2.1-1.6,2.2
	c-5.7,0.2-11.3,0.1-17.3,0.1c0-1.3,0-2.4,0-3.5c0-20.3,0-40.6,0-60.9c0-3.9,0.4-4.4,4.6-4.4c18.2,0,36.4,0.3,54.6-0.1
	c6.6-0.1,11.3,1.8,15.9,6.5c3.6,3.7,5.7,7.3,5.1,12.5c-0.4,3,0.1,6.1-0.1,9.2c-0.1,1.5-0.8,3.1-1.8,4.3c-1.8,2.2-4,4.2-6.1,6.1
	c-1.2,1.1-1.4,2-0.7,3.5c3.3,6.7,6.4,13.4,9.6,20.1c0.4,0.9,0.6,1.9,0.9,2.8c0.7,2.9,0.1,3.8-2.8,3.8c-4.3,0-8.7-0.1-13,0
	c-1.8,0.1-2.7-0.7-3.4-2.3c-2.6-6.5-5.5-13-8.2-19.5c-0.8-1.9-1.8-2.7-4-2.6C195.1,554.3,191.3,554.1,187.2,554.1 M189.7,543.9
	c3.5,0,7,0,10.5,0c0.8,0,1.8-0.2,2.5-0.6c4.7-3,7.9-6.8,6.7-12.8c-0.1-0.6,0-1.3,0-1.9c-0.2-2.9-4.9-7.3-7.8-7.3
	c-9.4,0-18.7,0-28.1,0c-6.2,0-6.2,0-6.2,6.3c0,5.4,0,10.8,0,16.4C174.8,543.9,181.9,543.9,189.7,543.9z"/>
<path class="st0" d="M353.4,578.5c-1.1,0-2,0-3.1,0c0-22.7,0-45.2,0-68.2c1.4,0,2.9,0,4.4,0c3.9,0,7.8,0.1,11.6,0
	c2.2-0.1,2.8,0.8,2.8,2.9c-0.1,7.3,0,14.6,0,21.9c0,1,0,2,0,3.2c14.1,0,28,0,42.1,0c0-9.2,0-18.3,0-27.7c6.2,0,12.1,0,18.2,0
	c0,22.5,0,45,0,67.8c-5.9,0-11.8,0-18.1,0c0-9.7,0-19.5,0-29.4c-14.2,0-28,0-42.3,0c0,1,0,2,0,2.9c0,7.9-0.1,15.9,0,23.8
	c0,2.3-0.7,3-3,2.9C362,578.4,357.8,578.5,353.4,578.5z"/>
<path class="st0" d="M273.8,514.6c1.1-0.9,1.9-2,3-2.6c1.6-0.9,3.5-2.1,5.2-2.2c17.7-0.2,35.4-0.1,53-0.1c3.2,0,3.7,0.6,3.7,3.8
	c0,8.4,0.9,7.6-7.5,7.6c-12,0-24,0-36,0c-4.1,0-9,4.9-9,8.9c0,9.3,0,18.6,0,27.9c0,1.8,0.7,2.9,1.8,4.3c3.4,4.4,7.6,6,13.3,5.6
	c7-0.5,14.1-0.3,21.1-0.1c3,0.1,3.4-1.4,3.4-3.7c0-6.8,0-13.5,0-20.3c0-3.6,0-3.6,3.5-3.6c3.1,0,6.1,0.1,9.2,0
	c1.7,0,2.5,0.5,2.5,2.3c0,11.3,0,22.5,0,33.8c0,1.4-0.3,2.3-1.9,2.3c-1.2,0.1-2.5,0.5-3.7,0.5c-16.3,0-32.6,0-49,0
	c-2.9,0-5.2-0.9-7.2-3c-3.3-3.4-7-6.5-10.3-9.9c-0.8-0.8-1.5-2.3-1.5-3.5c-0.1-13.3,0-26.5-0.1-39.8c0-2.1,1.1-3.1,2.3-4.3
	C270.9,517.3,272.3,516,273.8,514.6z"/>
<path class="st0" d="M497.3,521.7c-4.9,0-9.6,0-14.5,0c0,19,0,37.7,0,56.6c-6.4,0-12.6,0-19,0c0-18.8,0-37.5,0-56.6
	c-1.2,0-2.2,0-3.1,0c-6.8,0-13.5,0-20.3,0c-3.8,0-4.3-0.4-4.3-4.1c0-7.3,0-7.3,7.2-7.3c20.9,0,41.8,0,62.7,0c1.1,0,2.1,0,3.7,0
	c0,3.4,0.1,6.6-0.1,9.7c0,0.6-1.7,1.5-2.6,1.5C503.9,521.8,500.8,521.7,497.3,521.7z"/>
<path class="st0" d="M257.1,521.1c0,19.2,0,38.1,0,57.2c-6.3,0-12.4,0-18.7,0c0-22.5,0-45.1,0-67.8c6.1,0,12.2,0,18.7,0
	C257.1,513.9,257.1,517.4,257.1,521.1z"/>
</svg>
