<?xml version="1.0" encoding="UTF-8"?>
<!DOCTYPE svg PUBLIC "-//W3C//DTD SVG 1.1//EN" "http://www.w3.org/Graphics/SVG/1.1/DTD/svg11.dtd">
<svg xmlns="http://www.w3.org/2000/svg" version="1.1" width="1052px" height="197px" style="shape-rendering:geometricPrecision; text-rendering:geometricPrecision; image-rendering:optimizeQuality; fill-rule:evenodd; clip-rule:evenodd" xmlns:xlink="http://www.w3.org/1999/xlink">
<g><path style="opacity:0.998" fill="#012940" d="M 236.5,65.5 C 237.833,65.5 239.167,65.5 240.5,65.5C 241.715,87.048 253.049,98.7146 274.5,100.5C 283.181,100.239 291.014,97.5724 298,92.5C 300.188,93.0593 300.854,94.3927 300,96.5C 290.874,104.88 287.541,115.213 290,127.5C 292.547,136.372 297.714,143.205 305.5,148C 309.878,149.679 314.211,151.346 318.5,153C 304.171,153.5 289.837,153.667 275.5,153.5C 275.358,128.906 263.024,115.239 238.5,112.5C 213.971,115.254 201.638,128.921 201.5,153.5C 187.496,153.667 173.496,153.5 159.5,153C 184.983,144.867 192.817,128.367 183,103.5C 181.374,100.872 179.374,98.539 177,96.5C 176.167,93.3333 177.333,92.1667 180.5,93C 195.113,102.962 209.78,102.962 224.5,93C 232.455,85.5874 236.455,76.4207 236.5,65.5 Z"/></g>
<g><path style="opacity:1" fill="#002840" d="M 737.5,80.5 C 762.502,80.3334 787.502,80.5 812.5,81C 813.733,82.6977 814.4,84.6977 814.5,87C 814.464,89.0937 814.131,91.0937 813.5,93C 804.173,93.4998 794.839,93.6665 785.5,93.5C 785.5,113.5 785.5,133.5 785.5,153.5C 778.833,153.5 772.167,153.5 765.5,153.5C 765.5,133.5 765.5,113.5 765.5,93.5C 755.833,93.5 746.167,93.5 736.5,93.5C 736.231,89.0685 736.564,84.7352 737.5,80.5 Z"/></g>
<g><path style="opacity:1" fill="#002840" d="M 338.5,81.5 C 359.503,81.3334 380.503,81.5 401.5,82C 405.348,86.0156 409.348,89.8489 413.5,93.5C 414.33,99.4725 414.83,105.472 415,111.5C 418.698,113.514 422.365,115.514 426,117.5C 426.667,126.5 426.667,135.5 426,144.5C 423.167,147.333 420.333,150.167 417.5,153C 391.169,153.5 364.835,153.667 338.5,153.5C 338.5,129.5 338.5,105.5 338.5,81.5 Z M 359.5,92.5 C 370.172,92.3335 380.839,92.5002 391.5,93C 398.022,97.4631 400.355,103.63 398.5,111.5C 385.167,111.5 371.833,111.5 358.5,111.5C 358.249,105.108 358.582,98.7748 359.5,92.5 Z M 358.5,119.5 C 372.504,119.333 386.504,119.5 400.5,120C 402.746,121.039 404.913,122.206 407,123.5C 409.053,130.95 407.22,137.116 401.5,142C 387.488,142.833 373.488,142.666 359.5,141.5C 358.535,134.224 358.201,126.891 358.5,119.5 Z"/></g>
<g><path style="opacity:1" fill="#002840" d="M 434.5,81.5 C 458.836,81.3334 483.169,81.5 507.5,82C 511.299,84.7969 514.799,87.9636 518,91.5C 518.667,99.1667 518.667,106.833 518,114.5C 514.984,117.349 512.15,120.349 509.5,123.5C 512.394,130.288 515.56,136.955 519,143.5C 520.727,146.618 521.561,149.951 521.5,153.5C 514.825,153.666 508.158,153.5 501.5,153C 497.833,144.667 494.167,136.333 490.5,128C 478.505,127.5 466.505,127.333 454.5,127.5C 454.5,136.167 454.5,144.833 454.5,153.5C 447.833,153.5 441.167,153.5 434.5,153.5C 434.5,129.5 434.5,105.5 434.5,81.5 Z M 455.5,92.5 C 467.838,92.3335 480.171,92.5001 492.5,93C 498.272,97.4441 500.105,103.277 498,110.5C 496.167,112.333 494.333,114.167 492.5,116C 479.838,116.5 467.171,116.667 454.5,116.5C 454.199,108.414 454.533,100.414 455.5,92.5 Z"/></g>
<g><path style="opacity:1" fill="#002840" d="M 529.5,81.5 C 536.167,81.5 542.833,81.5 549.5,81.5C 549.5,105.5 549.5,129.5 549.5,153.5C 542.833,153.5 536.167,153.5 529.5,153.5C 529.5,129.5 529.5,105.5 529.5,81.5 Z"/></g>
<g><path style="opacity:1" fill="#002840" d="M 570.5,81.5 C 592.167,81.5 613.833,81.5 635.5,81.5C 635.5,85.1667 635.5,88.8333 635.5,92.5C 619.497,92.3334 603.497,92.5001 587.5,93C 585.04,94.4578 582.873,96.2911 581,98.5C 579.377,110.07 579.043,121.736 580,133.5C 582.167,137 585,139.833 588.5,142C 599.182,142.832 609.849,142.666 620.5,141.5C 621.474,131.887 621.808,122.22 621.5,112.5C 626.833,112.5 632.167,112.5 637.5,112.5C 637.5,126.167 637.5,139.833 637.5,153.5C 616.497,153.667 595.497,153.5 574.5,153C 569.366,148.867 564.532,144.367 560,139.5C 559.333,123.5 559.333,107.5 560,91.5C 564.001,88.6649 567.501,85.3316 570.5,81.5 Z"/></g>
<g><path style="opacity:1" fill="#002840" d="M 646.5,81.5 C 653.167,81.5 659.833,81.5 666.5,81.5C 666.5,91.5 666.5,101.5 666.5,111.5C 681.167,111.5 695.833,111.5 710.5,111.5C 710.5,101.5 710.5,91.5 710.5,81.5C 717.167,81.5 723.833,81.5 730.5,81.5C 730.5,105.5 730.5,129.5 730.5,153.5C 723.833,153.5 717.167,153.5 710.5,153.5C 710.5,143.167 710.5,132.833 710.5,122.5C 695.833,122.5 681.167,122.5 666.5,122.5C 666.5,132.833 666.5,143.167 666.5,153.5C 659.833,153.5 653.167,153.5 646.5,153.5C 646.5,129.5 646.5,105.5 646.5,81.5 Z"/></g>
</svg>
