<svg version="1.1" id="Layer_1" xmlns="http://www.w3.org/2000/svg" xmlns:xlink="http://www.w3.org/1999/xlink" x="0px" y="0px"
	 width="100%" viewBox="0 0 1052 197" enable-background="new 0 0 1052 197" xml:space="preserve">
<path fill="#FFFFFF" opacity="1.000000" stroke="none" 
	d="
M979.000000,198.000000 
	C654.166687,198.000000 329.833344,197.992432 5.500029,198.093124 
	C1.750893,198.094284 0.895882,197.250290 0.903914,193.499802 
	C1.038490,130.666748 1.035568,67.833260 0.903232,5.000204 
	C0.896019,1.575418 1.576601,0.905059 5.000027,0.906047 
	C353.000000,1.006508 701.000000,1.006508 1049.000000,0.906047 
	C1052.423462,0.905059 1053.104004,1.575422 1053.096802,5.000203 
	C1052.964600,67.999924 1052.964600,131.000076 1053.096802,193.999802 
	C1053.104004,197.424576 1052.428467,198.129883 1048.999146,198.101181 
	C1025.834106,197.907227 1002.666687,198.000000 979.000000,198.000000 
z"/>
<path fill="#012940" opacity="1.000000" stroke="none" 
	d="
M202.245621,154.666870 
	C188.505203,154.834793 175.009079,154.834793 161.512955,154.834793 
	C175.268433,150.879379 184.792221,142.666550 189.006531,128.339935 
	C189.256744,127.827805 189.342712,127.664825 189.310562,127.251953 
	C189.144577,123.965370 189.096680,120.928665 189.120804,117.441940 
	C189.271439,116.825684 189.350082,116.659447 189.302460,116.247940 
	C187.291290,109.730560 184.596817,103.906219 179.807434,99.266312 
	C178.715469,98.208450 177.117599,96.800430 178.283966,95.590439 
	C179.475433,94.354385 181.762939,94.431343 183.255646,95.809448 
	C186.213882,98.540596 190.184250,99.199409 193.488663,101.142181 
	C194.778046,101.900253 195.932922,101.910095 197.610443,102.091599 
	C198.171371,102.254112 198.335190,102.341240 198.749969,102.307983 
	C201.705063,102.141617 204.409195,102.095634 207.559265,102.119614 
	C208.171738,102.269272 208.338303,102.348969 208.752502,102.304596 
	C214.478775,100.726463 219.598541,98.626640 224.333282,95.341728 
	C232.435059,89.720810 236.305679,81.979980 236.984833,72.390839 
	C237.122742,70.443474 236.606247,68.086960 239.609772,68.049980 
	C242.573105,68.013496 242.661728,71.191002 242.552460,72.422501 
	C241.644714,82.654167 248.069717,89.042946 254.712158,94.705849 
	C258.948792,98.317711 263.815613,102.173325 270.591095,102.102448 
	C271.171204,102.262344 271.335815,102.345551 271.750183,102.309708 
	C274.375000,102.143463 276.750061,102.096268 279.565491,102.118431 
	C280.172272,102.268051 280.338654,102.348312 280.752258,102.303253 
	C286.215454,100.561295 291.573456,99.323311 296.119263,96.018349 
	C297.447510,95.052650 299.419464,94.079002 300.578735,95.466217 
	C301.868896,97.009995 300.817963,98.743767 299.349884,100.159035 
	C295.570496,103.802483 292.116577,107.875351 291.105347,113.115273 
	C289.310791,122.414009 289.844360,131.414200 295.877502,139.449478 
	C301.868591,147.428696 310.056671,151.794861 319.369812,154.985901 
	C305.887268,154.985901 292.404724,154.985901 278.458801,154.909470 
	C277.832947,154.720993 277.670471,154.608932 277.348389,154.247543 
	C277.597809,143.832886 274.948822,134.704361 268.020844,127.037102 
	C262.090607,120.474106 254.803818,116.372925 246.031311,115.002747 
	C234.354126,113.178886 224.046677,115.957909 215.172806,123.950417 
	C209.019653,129.492462 204.968796,136.214539 202.904694,144.613556 
	C202.742889,145.171371 202.657166,145.335342 202.691162,145.749695 
	C202.859222,148.374374 202.907593,150.748672 202.885345,153.562958 
	C202.706467,154.168274 202.598190,154.333603 202.245621,154.666870 
z"/>
<path fill="#002940" opacity="1.000000" stroke="none" 
	d="
M394.000000,155.000000 
	C377.025146,154.999985 360.549561,154.919205 344.076080,155.070770 
	C340.926422,155.099747 339.888824,154.417084 339.915283,151.043777 
	C340.082397,129.744263 340.054077,108.442520 339.938965,87.142319 
	C339.922577,84.112694 340.387756,82.869888 343.889954,82.907372 
	C362.359650,83.105049 380.832825,83.042862 399.304138,82.946724 
	C401.658630,82.934464 403.305878,83.627327 404.916382,85.299240 
	C408.125122,88.630272 411.399109,91.935341 414.960205,94.870026 
	C416.201508,95.892944 415.932312,96.802582 415.969788,97.820732 
	C416.061554,100.313553 416.000000,102.812012 416.000000,105.308205 
	C416.000031,113.921600 415.909912,114.194855 423.922089,116.836166 
	C427.136414,117.895844 428.081726,119.447670 428.025421,122.457573 
	C427.932037,127.448204 427.620667,132.478546 428.099091,137.424652 
	C428.657623,143.199478 426.771759,147.355255 422.495300,151.242584 
	C419.582642,153.890259 416.951904,155.310516 412.966858,155.089569 
	C406.828461,154.749237 400.657288,155.000000 394.000000,155.000000 
z"/>
<path fill="#002940" opacity="1.000000" stroke="none" 
	d="
M490.998413,83.000000 
	C494.330841,83.000000 497.238922,83.417229 499.982971,82.923332 
	C508.934418,81.312172 513.750793,87.421227 519.146729,92.626160 
	C520.164917,93.608299 519.982361,94.705238 519.991577,95.829056 
	C520.016174,98.828453 519.677368,101.870445 520.063721,104.819427 
	C521.017212,112.097183 519.382568,118.193359 513.031616,122.471764 
	C510.753265,124.006622 511.212585,125.625015 512.261841,127.810600 
	C515.676453,134.923294 518.860718,142.148056 522.057129,149.363541 
	C524.192444,154.183655 523.643127,154.980270 518.463440,154.998703 
	C516.297058,155.006424 514.130676,155.000000 511.964294,155.000000 
	C502.719391,155.000000 502.712830,155.002686 499.341125,146.773132 
	C497.208038,141.566757 494.997711,136.388474 493.028137,131.120514 
	C492.258057,129.060791 490.857666,128.987671 489.143250,128.990921 
	C479.144653,129.009872 469.144043,129.108963 459.148529,128.930969 
	C456.327271,128.880722 455.894226,129.951859 455.950897,132.395432 
	C456.097626,138.724518 455.876678,145.062790 456.057922,151.390076 
	C456.135376,154.095078 455.541962,155.320236 452.562744,155.043686 
	C447.150146,154.541229 440.062134,157.283340 436.778107,153.944397 
	C434.164978,151.287598 436.022064,144.167526 436.012421,139.028702 
	C435.979950,121.697762 436.085785,104.365921 435.923431,87.036430 
	C435.893097,83.799210 436.712524,82.885445 440.006531,82.919540 
	C456.835785,83.093704 473.667847,83.000008 490.998413,83.000000 
z"/>
<path fill="#002940" opacity="1.000000" stroke="none" 
	d="
M696.995911,113.000000 
	C702.137573,112.917679 708.346252,114.621941 711.011902,112.284904 
	C714.099609,109.577812 711.748108,103.224548 711.969055,98.461479 
	C712.199463,93.496277 710.265442,86.775528 712.781616,84.007141 
	C715.668518,80.831085 722.508179,83.523849 727.570801,82.930267 
	C731.545837,82.464195 732.110474,84.081451 732.082336,87.621834 
	C731.915405,108.620163 731.923889,129.621048 732.078125,150.619568 
	C732.102661,153.955246 731.529724,155.410721 727.830444,155.080032 
	C723.862183,154.725327 719.825623,154.809402 715.841736,155.062592 
	C712.861206,155.251999 711.808105,154.520264 711.913940,151.292633 
	C712.176025,143.301361 711.901978,135.293823 712.056396,127.296944 
	C712.106079,124.721390 711.416687,123.908638 708.752930,123.938339 
	C696.254639,124.077698 683.753174,124.076180 671.254883,123.939262 
	C668.605591,123.910233 667.891663,124.699234 667.942627,127.289215 
	C668.100220,135.285980 667.825806,143.293488 668.085388,151.284912 
	C668.189758,154.499054 667.160950,155.248825 664.166016,155.064240 
	C660.015198,154.808411 655.817444,154.753189 651.676392,155.078232 
	C648.378296,155.337112 647.921387,154.028702 647.937073,151.127579 
	C648.053223,129.628555 648.042969,108.128426 647.945374,86.629227 
	C647.933228,83.959572 648.404907,82.676399 651.417480,82.954659 
	C656.832214,83.454826 663.916931,80.725471 667.210022,84.046257 
	C669.825256,86.683548 667.809448,93.821724 668.028687,98.953903 
	C668.225037,103.551308 665.997620,109.678299 668.969360,112.296806 
	C671.530212,114.553276 677.521790,112.951218 681.997131,112.990425 
	C686.829956,113.032768 691.663452,113.000000 696.995911,113.000000 
z"/>
<path fill="#002940" opacity="1.000000" stroke="none" 
	d="
M581.006226,103.666138 
	C581.000610,113.095581 580.976013,122.089287 581.008118,131.082794 
	C581.031372,137.600616 587.373291,143.963623 593.871948,143.991730 
	C601.866089,144.026306 609.867981,143.796585 617.851807,144.085587 
	C621.858643,144.230621 623.059570,142.552505 623.021973,138.952850 
	C622.947205,131.792038 623.141296,124.625763 622.931274,117.470345 
	C622.845886,114.561401 623.828247,113.963242 626.568359,113.929993 
	C639.001099,113.779129 639.000000,113.689079 639.000000,126.094368 
	C639.000000,134.421799 638.896484,142.751221 639.057617,151.075531 
	C639.112061,153.885773 638.742615,155.124359 635.384949,155.090393 
	C616.733398,154.901779 598.078308,154.919022 579.426392,155.088287 
	C576.668335,155.113312 575.420105,153.387787 573.524841,152.184860 
	C568.969299,149.293472 565.911804,144.886490 561.928833,141.443604 
	C560.535461,140.239227 561.024292,138.697220 561.020691,137.276886 
	C560.986023,123.786537 561.009888,110.296059 560.989990,96.805656 
	C560.986755,94.631058 560.666138,92.371933 563.629517,91.757896 
	C563.902344,91.701347 564.172424,91.367935 564.338684,91.098297 
	C569.738403,82.341995 578.245911,82.729607 587.017395,82.911514 
	C602.333252,83.229156 617.665955,83.230782 632.979980,82.871361 
	C638.144836,82.750137 636.986450,85.754440 636.983521,88.515450 
	C636.980591,91.282021 638.116821,94.302856 632.947632,94.132980 
	C620.469971,93.722916 607.957275,94.335556 595.483276,93.873558 
	C588.056519,93.598488 583.839661,97.027985 581.006226,103.666138 
z"/>
<path fill="#002940" opacity="1.000000" stroke="none" 
	d="
M758.000732,82.000000 
	C775.665405,82.000000 792.830261,82.009300 809.995117,81.988235 
	C812.140564,81.985603 815.150146,81.725952 815.646240,83.763855 
	C816.440857,87.027771 816.685730,90.700188 815.373596,94.018906 
	C814.808899,95.447128 813.047302,94.988014 811.749939,94.991348 
	C804.750671,95.009338 797.744873,95.177597 790.755127,94.919472 
	C787.613464,94.803459 786.897949,95.734840 786.925171,98.790154 
	C787.079773,116.120300 786.885925,133.453888 787.093262,150.782928 
	C787.136292,154.378983 786.112183,155.343338 782.668640,155.072632 
	C778.693665,154.760147 774.655029,154.752625 770.681946,155.076782 
	C767.393311,155.345108 766.912598,154.045593 766.935425,151.133453 
	C767.067627,134.302917 766.860596,117.468864 767.096558,100.640610 
	C767.156677,96.352570 766.422424,94.530388 761.589111,94.876785 
	C754.791443,95.363998 747.931152,94.916855 741.100952,95.046135 
	C738.813965,95.089409 737.900269,94.582916 737.945618,92.060432 
	C738.162964,79.961922 736.799194,82.183914 747.501953,82.008499 
	C750.834106,81.953888 754.167847,82.000000 758.000732,82.000000 
z"/>
<path fill="#002940" opacity="1.000000" stroke="none" 
	d="
M531.039673,153.756287 
	C531.004272,131.290619 531.081604,109.306450 530.916992,87.324089 
	C530.891357,83.906334 531.601257,82.628456 535.219482,82.918800 
	C539.521851,83.264053 543.876587,83.102119 548.201782,82.957474 
	C550.351379,82.885582 551.053833,83.513580 551.046082,85.742027 
	C550.969177,107.891884 551.004761,130.042114 550.985413,152.192230 
	C550.984314,153.414688 551.476135,155.133728 549.269165,154.981628 
	C543.209961,154.564072 537.076416,155.975479 531.039673,153.756287 
z"/>
<path fill="#163347" opacity="1.000000" stroke="none" 
	d="
M277.135132,154.263306 
	C277.446533,154.093765 277.654755,154.253799 277.904419,154.655655 
	C277.690765,154.731491 277.386108,154.629944 277.135132,154.263306 
z"/>
<path fill="#163247" opacity="1.000000" stroke="none" 
	d="
M202.268784,154.876831 
	C202.094208,154.576874 202.248230,154.362991 202.639084,154.098053 
	C202.721909,154.308258 202.629074,154.613556 202.268784,154.876831 
z"/>
<path fill="#163247" opacity="1.000000" stroke="none" 
	d="
M202.887131,145.753204 
	C202.666656,145.832489 202.502792,145.676636 202.390945,145.489670 
	C202.359894,145.437744 202.483185,145.293518 202.682144,145.099518 
	C202.873550,145.173721 202.918472,145.340027 202.887131,145.753204 
z"/>
<path fill="#143246" opacity="1.000000" stroke="none" 
	d="
M189.116470,127.247696 
	C189.336029,127.169510 189.499130,127.325302 189.610428,127.511986 
	C189.641068,127.563362 189.516998,127.706985 189.317352,127.899536 
	C189.127335,127.824966 189.083908,127.659149 189.116470,127.247696 
z"/>
<path fill="#143246" opacity="1.000000" stroke="none" 
	d="
M189.108765,116.251190 
	C189.277786,116.269279 189.379364,116.535873 189.336868,116.897186 
	C189.142319,116.827850 189.091812,116.663780 189.108765,116.251190 
z"/>
<path fill="#173347" opacity="1.000000" stroke="none" 
	d="
M280.750305,102.106689 
	C280.731323,102.277550 280.463226,102.377174 280.100494,102.332291 
	C280.170959,102.137001 280.336060,102.086227 280.750305,102.106689 
z"/>
<path fill="#173347" opacity="1.000000" stroke="none" 
	d="
M271.752441,102.114388 
	C271.730682,102.284035 271.461395,102.377411 271.099365,102.324966 
	C271.172729,102.132133 271.338867,102.085121 271.752441,102.114388 
z"/>
<path fill="#173347" opacity="1.000000" stroke="none" 
	d="
M208.750732,102.108955 
	C208.731628,102.279976 208.463089,102.379440 208.099869,102.334236 
	C208.170547,102.138840 208.335922,102.088120 208.750732,102.108955 
z"/>
<path fill="#173347" opacity="1.000000" stroke="none" 
	d="
M198.754059,102.110817 
	C198.731079,102.278572 198.461227,102.369553 198.099472,102.313751 
	C198.174103,102.122665 198.340668,102.078354 198.754059,102.110817 
z"/>
<path fill="#FFFFFF" opacity="1.000000" stroke="none" 
	d="
M365.114532,121.000000 
	C376.244141,121.000000 386.884430,120.969002 397.524109,121.033730 
	C399.103394,121.043343 400.619324,120.909935 402.298523,121.673752 
	C409.257874,124.839294 410.441162,127.013641 408.990082,135.564590 
	C408.219635,140.104736 402.895721,143.999557 397.457428,143.999832 
	C386.817322,144.000366 376.169495,143.762939 365.540741,144.110321 
	C360.938416,144.260742 359.839844,142.332291 359.968292,138.362656 
	C360.108032,134.044632 360.320679,129.687607 359.906555,125.405113 
	C359.520142,121.409088 361.126740,120.406860 365.114532,121.000000 
z"/>
<path fill="#FFFFFF" opacity="1.000000" stroke="none" 
	d="
M385.993530,113.000000 
	C378.011871,112.999863 370.527008,112.913918 363.046173,113.050003 
	C360.691833,113.092827 360.038147,112.431602 359.930054,110.018570 
	C359.212280,93.997063 359.146759,94.000000 375.116211,94.000000 
	C379.606201,94.000000 384.108002,94.197624 388.582001,93.929939 
	C391.523560,93.753944 393.242554,95.264694 395.485474,96.778023 
	C401.003571,100.501190 399.928009,105.811264 400.022888,111.002777 
	C400.059418,113.000710 398.897125,113.021729 397.467316,113.009323 
	C393.809082,112.977570 390.150391,112.999527 385.993530,113.000000 
z"/>
<path fill="#FFFFFF" opacity="1.000000" stroke="none" 
	d="
M483.938049,94.000000 
	C488.134735,94.723953 491.840790,93.011826 495.704620,95.899666 
	C502.185852,100.743729 501.689148,112.431458 494.571045,117.046150 
	C493.322113,117.855827 492.208038,117.997490 490.910675,117.997932 
	C480.441284,118.001495 469.970367,117.900497 459.503571,118.065468 
	C456.669617,118.110130 455.827515,117.290115 455.937469,114.476616 
	C456.151428,109.001015 456.114716,103.507797 455.954926,98.028496 
	C455.866669,95.002388 456.984558,93.898224 460.018890,93.953033 
	C467.826813,94.094086 475.639038,94.000084 483.938049,94.000000 
z"/>
</svg>