<svg version="1.1" id="Layer_1" xmlns="http://www.w3.org/2000/svg" xmlns:xlink="http://www.w3.org/1999/xlink" x="0px" y="0px"
	 width="100%" viewBox="0 0 946 280" enable-background="new 0 0 946 280" xml:space="preserve">

<path fill="#F2DF80" opacity="1.000000" stroke="none" 
	d="
M144.977203,168.002914 
	C134.999313,168.002914 125.518417,168.002914 115.291023,168.002914 
	C120.088097,165.789169 124.381065,164.192719 128.293350,161.936234 
	C145.505981,152.008484 148.859253,127.809212 135.144516,113.468620 
	C134.684311,112.987396 134.007721,112.606468 133.773132,112.038010 
	C133.265167,110.807137 132.978653,109.484879 132.601562,108.199997 
	C133.919617,108.276482 135.391541,107.998169 136.528824,108.491447 
	C141.221878,110.526985 145.651489,113.282295 150.472488,114.889488 
	C165.320282,119.839325 190.242813,107.624832 190.998169,86.512001 
	C191.021973,85.846764 190.777817,84.994759 191.100494,84.551544 
	C191.972031,83.354408 193.082428,82.331161 194.098053,81.238930 
	C194.731934,82.434891 195.816284,83.589752 195.929703,84.833183 
	C197.013458,96.714668 203.168640,105.250969 213.193161,111.178551 
	C225.473221,118.439842 237.507706,116.836136 249.339615,109.876915 
	C250.876907,108.972717 252.633438,108.441284 255.117340,108.365555 
	C247.189728,119.170723 241.011810,129.914749 245.584366,143.749237 
	C250.058838,157.287018 260.138885,163.963730 272.980347,168.002243 
	C260.379150,168.002243 247.777969,168.007812 235.176804,167.992798 
	C234.033554,167.991440 232.890472,167.857651 231.157944,167.748108 
	C231.874619,154.072220 227.397644,142.754593 216.265808,134.394958 
	C209.151703,129.052505 200.932327,126.727371 192.478195,127.195328 
	C175.039261,128.160645 156.867798,139.571518 155.672867,168.002914 
	C152.307968,168.002914 148.891083,168.002914 144.977203,168.002914 
z"/>
<path fill="#F2DF7F" opacity="1.000000" stroke="none" 
	d="
M369.506042,167.999466 
	C344.266663,167.999878 319.474396,167.999878 294.342590,167.999878 
	C294.342590,143.952621 294.342590,120.378098 294.342590,96.239113 
	C296.088196,96.159866 297.848663,96.012268 299.609283,96.010506 
	C316.939758,95.993141 334.271057,96.086838 351.600067,95.926132 
	C355.031189,95.894325 357.301666,97.151779 359.951141,99.230827 
	C367.660706,105.280533 371.981293,112.393227 370.038147,122.523125 
	C369.133087,127.241264 373.355927,128.092682 376.202881,128.901306 
	C381.333344,130.358521 382.401642,133.484177 382.068054,138.204330 
	C381.751678,142.681229 381.467712,147.276230 382.114716,151.680450 
	C383.330383,159.955673 376.978790,163.231018 372.381256,167.713455 
	C371.918762,168.164398 370.778778,167.920486 369.506042,167.999466 
M314.000000,146.434387 
	C314.000000,147.434250 313.998505,148.434097 314.000244,149.433960 
	C314.013428,156.996857 314.013611,156.998489 321.424347,156.999603 
	C331.756226,157.001160 342.088165,157.012589 352.420013,156.994873 
	C357.871338,156.985535 362.618774,152.617737 362.995483,147.323471 
	C363.602844,138.787827 361.291473,134.470810 354.369171,134.196716 
	C341.112640,133.671860 327.820557,134.044128 314.000000,134.044128 
	C314.000000,138.216415 314.000000,141.839630 314.000000,146.434387 
M321.576782,126.000000 
	C332.295319,126.000000 343.013885,126.000000 353.996216,126.000000 
	C353.996216,122.334351 354.102051,119.515625 353.969696,116.708130 
	C353.801056,113.130844 347.673889,107.071014 344.070862,107.032173 
	C335.432098,106.939041 326.786621,106.855980 318.156982,107.152245 
	C316.763916,107.200066 314.374237,109.124367 314.267487,110.341148 
	C313.824982,115.384697 314.081757,120.489609 314.081757,126.000000 
	C316.677734,126.000000 318.639374,126.000000 321.576782,126.000000 
z"/>
<path fill="#F2DF7F" opacity="1.000000" stroke="none" 
	d="
M444.350006,142.046967 
	C432.804108,142.013641 421.696289,142.013641 410.080566,142.013641 
	C410.080566,150.794861 410.080566,159.039200 410.080566,167.637619 
	C403.334137,167.637619 397.093903,167.637619 390.423676,167.637619 
	C390.423676,144.012939 390.423676,120.335449 390.423676,96.263985 
	C392.090302,96.174011 393.701050,96.012642 395.311920,96.011337 
	C416.289825,95.994339 437.267731,95.990601 458.245636,96.005165 
	C465.499023,96.010201 473.995850,104.586960 473.999817,111.852531 
	C474.001007,114.016922 473.754456,116.214890 474.045074,118.339531 
	C474.995056,125.284828 473.335083,131.095444 467.301117,135.191223 
	C464.804291,136.886032 465.293793,138.688110 466.477020,141.107330 
	C469.814545,147.931137 472.881989,154.890839 475.899292,161.864716 
	C476.629272,163.551865 476.754639,165.500626 477.302887,167.985703 
	C470.672150,167.985703 464.873474,168.145294 459.098450,167.846909 
	C457.984680,167.789383 456.546478,166.130859 455.969330,164.882095 
	C452.852325,158.137894 449.996429,151.273453 446.946167,144.497437 
	C446.523376,143.558197 445.521759,142.879562 444.350006,142.046967 
M415.634644,131.000000 
	C424.284515,131.000000 432.958069,130.595047 441.578400,131.099747 
	C453.048126,131.771240 455.930725,121.720192 453.521576,113.980515 
	C452.619385,111.082016 448.277588,107.555939 445.267944,107.319443 
	C434.852631,106.500954 424.330505,106.886543 413.857635,107.152954 
	C412.550385,107.186203 410.253082,109.193909 410.188202,110.383522 
	C409.827759,116.990433 410.015320,123.627228 410.015320,130.636292 
	C411.798737,130.775528 413.235382,130.887695 415.634644,131.000000 
z"/>
<path fill="#F2DF7F" opacity="1.000000" stroke="none" 
	d="
M603.365479,167.850983 
	C602.607300,166.684250 602.043762,165.617004 602.041565,164.548599 
	C601.995239,142.553131 602.010315,120.557518 602.030457,98.561958 
	C602.031006,97.925514 602.218201,97.289238 602.367676,96.339386 
	C608.717896,96.339386 614.961121,96.339386 621.734253,96.339386 
	C621.734253,105.934143 621.734253,115.518394 621.734253,125.548721 
	C636.610535,125.548721 650.971069,125.548721 665.860474,125.548721 
	C665.860474,115.935883 665.860474,106.351715 665.860474,96.388260 
	C672.615417,96.388260 678.860474,96.388260 685.556152,96.388260 
	C685.556152,119.960625 685.556152,143.652603 685.556152,167.673645 
	C679.254761,167.673645 673.011414,167.673645 666.239685,167.673645 
	C666.239685,157.704681 666.239685,147.787964 666.239685,137.438293 
	C651.362183,137.438293 637.002075,137.438293 622.113525,137.438293 
	C622.113525,147.424896 622.113525,157.341858 622.113525,167.949905 
	C615.680664,167.949905 609.751099,167.949905 603.365479,167.850983 
z"/>
<path fill="#F2DF7F" opacity="1.000000" stroke="none" 
	d="
M539.018555,96.000000 
	C556.458618,96.000000 573.401978,96.000000 590.670349,96.000000 
	C590.670349,99.732964 590.670349,102.977432 590.670349,106.999977 
	C588.876343,106.999977 587.120361,106.999977 585.364380,106.999977 
	C572.710266,107.000000 560.056152,106.979050 547.402100,107.008316 
	C540.386841,107.024536 535.052429,112.214935 535.011719,119.083351 
	C534.962341,127.408112 534.956238,135.733688 535.013855,144.058350 
	C535.059937,150.718384 541.395508,156.950378 548.127991,156.989365 
	C555.953308,157.034668 563.786438,156.796082 571.601685,157.079712 
	C575.969543,157.238235 577.068237,155.204025 577.026001,151.412292 
	C576.937439,143.468597 576.999084,135.523209 576.999084,127.294815 
	C582.474060,127.294815 587.380859,127.294815 592.645691,127.294815 
	C592.645691,140.681107 592.645691,153.916168 592.645691,167.754715 
	C590.965027,167.834167 589.211243,167.987198 587.457336,167.989105 
	C570.640747,168.007324 553.819946,167.792999 537.010254,168.132812 
	C532.291016,168.228210 528.648499,166.862106 525.416931,163.853531 
	C522.372498,161.019089 519.299561,158.164139 516.659424,154.970718 
	C515.549622,153.628281 515.087830,151.396759 515.069397,149.562012 
	C514.938843,136.576248 515.072693,123.587837 514.944092,110.602036 
	C514.915344,107.692139 515.269287,105.350395 518.266724,104.159554 
	C518.555176,104.044960 518.819580,103.760094 518.996277,103.489639 
	C523.702393,96.284317 530.644043,94.925430 539.018555,96.000000 
z"/>
<path fill="#F2DF7F" opacity="1.000000" stroke="none" 
	d="
M692.156616,106.655800 
	C691.993408,92.909546 690.708801,95.099388 703.024475,95.030502 
	C723.182251,94.917755 743.341553,94.940987 763.498962,95.087845 
	C765.607971,95.103210 769.259766,95.973190 769.516602,97.072632 
	C770.239197,100.165253 769.761597,103.615990 769.253784,106.846405 
	C769.162903,107.424553 766.670593,107.929977 765.280151,107.948662 
	C757.466858,108.053596 749.651489,107.999245 741.145752,107.999245 
	C741.145752,128.001144 741.145752,147.700531 741.145752,167.693756 
	C734.212952,167.693756 727.971252,167.693756 721.208740,167.693756 
	C721.208740,148.000580 721.208740,128.423843 721.208740,108.000000 
	C713.471375,108.000000 706.219543,108.068840 698.970398,107.959000 
	C696.729431,107.925049 694.495850,107.404694 692.156616,106.655800 
z"/>
<path fill="#F2DF7F" opacity="1.000000" stroke="none" 
	d="
M485.000000,105.047668 
	C485.000000,101.926506 485.000000,99.298180 485.000000,96.342697 
	C491.702118,96.342697 497.937317,96.342697 504.589233,96.342697 
	C504.589233,119.995941 504.589233,143.656342 504.589233,167.659515 
	C498.293488,167.659515 492.057953,167.659515 485.000000,167.659515 
	C485.000000,146.958115 485.000000,126.249313 485.000000,105.047668 
z"/>

</svg>