<svg xmlns="http://www.w3.org/2000/svg" version="1.1"
    xmlns:xlink="http://www.w3.org/1999/xlink" width="512" height="512" x="0" y="0" viewBox="0 0 512 512" style="enable-background:new 0 0 512 512" xml:space="preserve" class="">
    <g>
        <path d="M307.148 35.148 203.081 139.214c-.201.2-.326.443-.526.645 25.637-3.734 51.974-1.174 76.388 8.346l70.63-70.63c23.399-23.399 61.454-23.399 84.853 0 23.399 23.397 23.399 61.454 0 84.851-3.99 3.992-110.083 110.085-104.066 104.066-23.584 23.586-62.276 22.577-84.853 0-11.693-11.693-30.731-11.693-42.426 0l-18.214 18.214c5.052 8.584 10.844 16.844 18.214 24.214 44.44 44.44 120.934 47.99 169.061.526.201-.2.443-.326.645-.526l104.066-104.066c46.862-46.864 46.862-122.842 0-169.706-46.864-46.864-122.841-46.864-169.705 0z" fill="#000000" opacity="1" data-original="#000000" class=""></path>
        <path d="m233.285 363.568-70.858 70.858c-23.397 23.399-61.454 23.399-84.851 0-23.399-23.399-23.399-61.454 0-84.853L181.869 245.28c23.584-23.584 62.276-22.577 84.853 0 11.693 11.695 30.732 11.695 42.426 0l18.214-18.214c-5.052-8.584-10.844-16.844-18.214-24.212-44.355-44.357-120.793-48.131-169.061-.527-.201.2-.443.326-.645.527L35.148 307.148c-46.862 46.862-46.864 122.842 0 169.706 46.864 46.862 122.844 46.862 169.706 0l104.293-104.295c.201-.2.326-.441.526-.645-25.637 3.734-51.973 1.174-76.388-8.346z" fill="#000000" opacity="1" data-original="#000000" class=""></path>
    </g>
</svg>